# xmcd CD database file
#
# Track frame offsets:
#	150
#	17895
#	36538
#	54645
#	73831
#	92401
#	111578
#	128219
#	141882
#	158219
#	178287
#	194583
#
# Disc length: 2781 seconds
#
# Revision: 0
# Processed by: cddbd v1.5.1PL2 Copyright (c) Steve Scherf et al.
# Submitted via: CDex 1.51
#
DISCID=bb0adb0c
DTITLE=Tania Moran - Sanctity
DYEAR=2005
DGENRE=Pop
TTITLE0=What's Going On
TTITLE1=Scumbag
TTITLE2=Changes
TTITLE3=Two Is A Crowd
TTITLE4=Ride Of My Life
TTITLE5=Say It's Over Now
TTITLE6=Let The Rain Fall Down
TTITLE7=Ldadder In My Tights
TTITLE8=Matter Of Truth
TTITLE9=Truen To Me
TTITLE10=A New Tomorrow
TTITLE11=Sanctity
EXTD=YEAR: 2005
EXTT0=
EXTT1=
EXTT2=
EXTT3=
EXTT4=
EXTT5=
EXTT6=
EXTT7=
EXTT8=
EXTT9=
EXTT10=
EXTT11=
PLAYORDER=
